<mxfile host="app.diagrams.net" agent="Mozilla/5.0 (Windows NT 10.0; Win64; x64) AppleWebKit/537.36 (KHTML, like Gecko) Chrome/131.0.0.0 Safari/537.36" version="25.0.3">
  <diagram name="Page-1" id="UuQA1Ld9MNjJxdOxv1tu">
    <mxGraphModel dx="3240" dy="1243" grid="1" gridSize="10" guides="1" tooltips="1" connect="1" arrows="1" fold="1" page="1" pageScale="1" pageWidth="850" pageHeight="1100" math="0" shadow="0">
      <root>
        <mxCell id="0" />
        <mxCell id="1" parent="0" />
        <mxCell id="WDQ58JpOzV6km5oKxnGy-1" value="MEGA" style="rounded=0;whiteSpace=wrap;html=1;" parent="1" vertex="1">
          <mxGeometry x="795" y="2080" width="120" height="60" as="geometry" />
        </mxCell>
        <mxCell id="WDQ58JpOzV6km5oKxnGy-2" value="PDM" style="rounded=1;whiteSpace=wrap;html=1;fillColor=#f8cecc;strokeColor=#b85450;" parent="1" vertex="1">
          <mxGeometry x="690" y="980" width="330" height="210" as="geometry" />
        </mxCell>
        <mxCell id="WDQ58JpOzV6km5oKxnGy-5" style="edgeStyle=orthogonalEdgeStyle;rounded=0;orthogonalLoop=1;jettySize=auto;html=1;strokeColor=#FF0000;" parent="1" source="WDQ58JpOzV6km5oKxnGy-3" target="WDQ58JpOzV6km5oKxnGy-4" edge="1">
          <mxGeometry relative="1" as="geometry" />
        </mxCell>
        <mxCell id="WDQ58JpOzV6km5oKxnGy-3" value="M_PARTIDA" style="rounded=0;whiteSpace=wrap;html=1;" parent="1" vertex="1">
          <mxGeometry x="50" y="70" width="120" height="60" as="geometry" />
        </mxCell>
        <mxCell id="WDQ58JpOzV6km5oKxnGy-4" value="R_PARTIDA" style="rounded=0;whiteSpace=wrap;html=1;" parent="1" vertex="1">
          <mxGeometry x="305" y="110" width="120" height="60" as="geometry" />
        </mxCell>
        <mxCell id="WDQ58JpOzV6km5oKxnGy-6" value="" style="pointerEvents=1;verticalLabelPosition=bottom;shadow=0;dashed=0;align=center;html=1;verticalAlign=top;shape=mxgraph.electrical.signal_sources.signal_ground;" parent="1" vertex="1">
          <mxGeometry x="20" y="210" width="45" height="30" as="geometry" />
        </mxCell>
        <mxCell id="WDQ58JpOzV6km5oKxnGy-7" style="edgeStyle=orthogonalEdgeStyle;rounded=0;orthogonalLoop=1;jettySize=auto;html=1;entryX=0.5;entryY=0;entryDx=0;entryDy=0;entryPerimeter=0;" parent="1" source="WDQ58JpOzV6km5oKxnGy-3" target="WDQ58JpOzV6km5oKxnGy-6" edge="1">
          <mxGeometry relative="1" as="geometry" />
        </mxCell>
        <mxCell id="WDQ58JpOzV6km5oKxnGy-9" style="edgeStyle=orthogonalEdgeStyle;rounded=0;orthogonalLoop=1;jettySize=auto;html=1;entryX=1;entryY=0.25;entryDx=0;entryDy=0;strokeColor=#FF0000;" parent="1" source="WDQ58JpOzV6km5oKxnGy-8" target="WDQ58JpOzV6km5oKxnGy-4" edge="1">
          <mxGeometry relative="1" as="geometry" />
        </mxCell>
        <mxCell id="WDQ58JpOzV6km5oKxnGy-8" value="CHAVE GERAL" style="rounded=0;whiteSpace=wrap;html=1;" parent="1" vertex="1">
          <mxGeometry x="1140" y="110" width="120" height="60" as="geometry" />
        </mxCell>
        <mxCell id="WDQ58JpOzV6km5oKxnGy-10" value="PAINEL" style="rounded=0;whiteSpace=wrap;html=1;" parent="1" vertex="1">
          <mxGeometry x="30" y="350" width="120" height="60" as="geometry" />
        </mxCell>
        <mxCell id="WDQ58JpOzV6km5oKxnGy-16" style="edgeStyle=orthogonalEdgeStyle;rounded=0;orthogonalLoop=1;jettySize=auto;html=1;strokeColor=#3333FF;" parent="1" source="WDQ58JpOzV6km5oKxnGy-12" edge="1">
          <mxGeometry relative="1" as="geometry">
            <mxPoint x="250" y="300" as="targetPoint" />
          </mxGeometry>
        </mxCell>
        <mxCell id="WDQ58JpOzV6km5oKxnGy-21" style="edgeStyle=orthogonalEdgeStyle;rounded=0;orthogonalLoop=1;jettySize=auto;html=1;entryX=0;entryY=0.5;entryDx=0;entryDy=0;strokeColor=#3333FF;" parent="1" source="WDQ58JpOzV6km5oKxnGy-12" target="WDQ58JpOzV6km5oKxnGy-17" edge="1">
          <mxGeometry relative="1" as="geometry" />
        </mxCell>
        <mxCell id="WDQ58JpOzV6km5oKxnGy-12" value="KS FREIO" style="ellipse;whiteSpace=wrap;html=1;fillColor=#ffe6cc;strokeColor=#d79b00;" parent="1" vertex="1">
          <mxGeometry x="210" y="340" width="80" height="80" as="geometry" />
        </mxCell>
        <mxCell id="WDQ58JpOzV6km5oKxnGy-15" value="" style="endArrow=classic;html=1;rounded=0;exitX=0.5;exitY=0;exitDx=0;exitDy=0;entryX=0.5;entryY=1;entryDx=0;entryDy=0;strokeColor=#3333FF;" parent="1" source="WDQ58JpOzV6km5oKxnGy-10" target="WDQ58JpOzV6km5oKxnGy-4" edge="1">
          <mxGeometry width="50" height="50" relative="1" as="geometry">
            <mxPoint x="610" y="210" as="sourcePoint" />
            <mxPoint x="660" y="160" as="targetPoint" />
            <Array as="points">
              <mxPoint x="90" y="300" />
              <mxPoint x="365" y="300" />
            </Array>
          </mxGeometry>
        </mxCell>
        <mxCell id="WDQ58JpOzV6km5oKxnGy-22" style="edgeStyle=orthogonalEdgeStyle;rounded=0;orthogonalLoop=1;jettySize=auto;html=1;entryX=0.5;entryY=1;entryDx=0;entryDy=0;strokeColor=#FF0000;" parent="1" source="WDQ58JpOzV6km5oKxnGy-17" target="WDQ58JpOzV6km5oKxnGy-8" edge="1">
          <mxGeometry relative="1" as="geometry" />
        </mxCell>
        <mxCell id="WDQ58JpOzV6km5oKxnGy-17" value="R_PRINCIPAL" style="rounded=0;whiteSpace=wrap;html=1;" parent="1" vertex="1">
          <mxGeometry x="770" y="195" width="150" height="95" as="geometry" />
        </mxCell>
        <mxCell id="WDQ58JpOzV6km5oKxnGy-18" style="edgeStyle=orthogonalEdgeStyle;rounded=0;orthogonalLoop=1;jettySize=auto;html=1;strokeColor=#FF0000;exitX=0;exitY=0.25;exitDx=0;exitDy=0;" parent="1" source="WDQ58JpOzV6km5oKxnGy-17" edge="1">
          <mxGeometry relative="1" as="geometry">
            <mxPoint x="400" y="170" as="targetPoint" />
          </mxGeometry>
        </mxCell>
        <mxCell id="WDQ58JpOzV6km5oKxnGy-20" value="" style="endArrow=classic;html=1;rounded=0;exitX=0.25;exitY=1;exitDx=0;exitDy=0;entryX=1;entryY=0.25;entryDx=0;entryDy=0;strokeColor=#FF0000;" parent="1" source="WDQ58JpOzV6km5oKxnGy-8" target="WDQ58JpOzV6km5oKxnGy-17" edge="1">
          <mxGeometry width="50" height="50" relative="1" as="geometry">
            <mxPoint x="610" y="310" as="sourcePoint" />
            <mxPoint x="660" y="260" as="targetPoint" />
            <Array as="points">
              <mxPoint x="1170" y="219" />
            </Array>
          </mxGeometry>
        </mxCell>
        <mxCell id="WDQ58JpOzV6km5oKxnGy-25" value="" style="endArrow=classic;html=1;rounded=0;exitX=-0.002;exitY=0.051;exitDx=0;exitDy=0;entryX=1;entryY=0.75;entryDx=0;entryDy=0;exitPerimeter=0;strokeColor=#FF0000;" parent="1" source="WDQ58JpOzV6km5oKxnGy-17" target="WDQ58JpOzV6km5oKxnGy-4" edge="1">
          <mxGeometry width="50" height="50" relative="1" as="geometry">
            <mxPoint x="610" y="310" as="sourcePoint" />
            <mxPoint x="660" y="260" as="targetPoint" />
            <Array as="points">
              <mxPoint x="490" y="200" />
              <mxPoint x="490" y="155" />
            </Array>
          </mxGeometry>
        </mxCell>
        <mxCell id="WDQ58JpOzV6km5oKxnGy-26" value="" style="endArrow=classic;html=1;rounded=0;exitX=0.533;exitY=1.003;exitDx=0;exitDy=0;exitPerimeter=0;entryX=0.485;entryY=0;entryDx=0;entryDy=0;entryPerimeter=0;strokeWidth=6;strokeColor=#FF0000;" parent="1" source="WDQ58JpOzV6km5oKxnGy-17" target="WDQ58JpOzV6km5oKxnGy-2" edge="1">
          <mxGeometry width="50" height="50" relative="1" as="geometry">
            <mxPoint x="870" y="410" as="sourcePoint" />
            <mxPoint x="850" y="520" as="targetPoint" />
          </mxGeometry>
        </mxCell>
        <mxCell id="vufEk6eHOgB_xnrC6HmV-2" style="edgeStyle=orthogonalEdgeStyle;rounded=0;orthogonalLoop=1;jettySize=auto;html=1;entryX=0;entryY=0.25;entryDx=0;entryDy=0;" edge="1" parent="1" source="vufEk6eHOgB_xnrC6HmV-1" target="WDQ58JpOzV6km5oKxnGy-10">
          <mxGeometry relative="1" as="geometry" />
        </mxCell>
        <mxCell id="vufEk6eHOgB_xnrC6HmV-1" value="B_PARTIDA" style="rounded=1;whiteSpace=wrap;html=1;" vertex="1" parent="1">
          <mxGeometry x="-830" y="550" width="120" height="60" as="geometry" />
        </mxCell>
        <mxCell id="vufEk6eHOgB_xnrC6HmV-4" value="" style="endArrow=classic;html=1;rounded=0;exitX=1.001;exitY=0.834;exitDx=0;exitDy=0;entryX=0;entryY=0.5;entryDx=0;entryDy=0;exitPerimeter=0;strokeColor=#3333FF;" edge="1" parent="1" source="vufEk6eHOgB_xnrC6HmV-1" target="WDQ58JpOzV6km5oKxnGy-10">
          <mxGeometry width="50" height="50" relative="1" as="geometry">
            <mxPoint x="-280" y="510" as="sourcePoint" />
            <mxPoint x="-230" y="460" as="targetPoint" />
            <Array as="points">
              <mxPoint x="-310" y="600" />
              <mxPoint x="-310" y="380" />
            </Array>
          </mxGeometry>
        </mxCell>
        <mxCell id="vufEk6eHOgB_xnrC6HmV-5" value="KS_PAINEL" style="ellipse;whiteSpace=wrap;html=1;aspect=fixed;" vertex="1" parent="1">
          <mxGeometry x="-820" y="440" width="80" height="80" as="geometry" />
        </mxCell>
        <mxCell id="vufEk6eHOgB_xnrC6HmV-6" value="ALAVANCA" style="rounded=0;whiteSpace=wrap;html=1;" vertex="1" parent="1">
          <mxGeometry x="-830" y="340" width="120" height="60" as="geometry" />
        </mxCell>
        <mxCell id="vufEk6eHOgB_xnrC6HmV-7" style="edgeStyle=orthogonalEdgeStyle;rounded=0;orthogonalLoop=1;jettySize=auto;html=1;entryX=0.42;entryY=1.004;entryDx=0;entryDy=0;entryPerimeter=0;strokeColor=#3333FF;" edge="1" parent="1" source="vufEk6eHOgB_xnrC6HmV-5" target="vufEk6eHOgB_xnrC6HmV-6">
          <mxGeometry relative="1" as="geometry" />
        </mxCell>
        <mxCell id="vufEk6eHOgB_xnrC6HmV-8" style="edgeStyle=orthogonalEdgeStyle;rounded=0;orthogonalLoop=1;jettySize=auto;html=1;entryX=0;entryY=0.661;entryDx=0;entryDy=0;entryPerimeter=0;strokeColor=#3333FF;" edge="1" parent="1" source="vufEk6eHOgB_xnrC6HmV-5" target="WDQ58JpOzV6km5oKxnGy-10">
          <mxGeometry relative="1" as="geometry" />
        </mxCell>
        <mxCell id="vufEk6eHOgB_xnrC6HmV-10" style="edgeStyle=orthogonalEdgeStyle;rounded=0;orthogonalLoop=1;jettySize=auto;html=1;entryX=0.011;entryY=0.887;entryDx=0;entryDy=0;entryPerimeter=0;" edge="1" parent="1" source="vufEk6eHOgB_xnrC6HmV-6" target="WDQ58JpOzV6km5oKxnGy-10">
          <mxGeometry relative="1" as="geometry">
            <Array as="points">
              <mxPoint x="-370" y="370" />
              <mxPoint x="-370" y="403" />
            </Array>
          </mxGeometry>
        </mxCell>
        <mxCell id="vufEk6eHOgB_xnrC6HmV-11" value="REG_RETIFICADOR" style="rounded=0;whiteSpace=wrap;html=1;" vertex="1" parent="1">
          <mxGeometry x="1370" y="370" width="140" height="60" as="geometry" />
        </mxCell>
      </root>
    </mxGraphModel>
  </diagram>
</mxfile>
